<?xml version="1.0" encoding="UTF-8" standalone="no"?> <svg width="64" height="64" viewBox="0 0 64 64" fill="none" xmlns="http://www.w3.org/2000/svg">
<path d="M58.8801 29.1201L32.8801 3.12005C32.7648 3.00395 32.6277 2.9118 32.4767 2.84892C32.3256 2.78604 32.1637 2.75366 32.0001 2.75366C31.8365 2.75366 31.6745 2.78604 31.5234 2.84892C31.3724 2.9118 31.2353 3.00395 31.1201 3.12005L5.12005 29.1201C5.00239 29.2343 4.90898 29.3712 4.84541 29.5224C4.78183 29.6736 4.7494 29.836 4.75005 30V57C4.72302 58.0924 5.12788 59.1513 5.87675 59.947C6.62563 60.7427 7.65809 61.2109 8.75005 61.25H55.21C56.302 61.2109 57.3345 60.7427 58.0834 59.947C58.8322 59.1513 59.2371 58.0924 59.21 57V30C59.216 29.8388 59.1898 29.678 59.1332 29.527C59.0765 29.3759 58.9905 29.2376 58.8801 29.1201ZM39.75 58.75H24.2501V40C24.2527 39.5367 24.4379 39.0931 24.7655 38.7655C25.0931 38.4379 25.5367 38.2527 26.0001 38.25H38C38.4634 38.2527 38.907 38.4379 39.2346 38.7655C39.5622 39.0931 39.7474 39.5367 39.75 40V58.75Z" fill="black"/>
</svg>
